# xmcd
#
# Track frame offsets:
#	150
#	17140
#	26715
#	36967
#	53252
#	64525
#	72807
#	84077
#	92537
#	105545
#	125815
#	142547
#	153495
#	165517
#	182892
#	194060
#	208962
#	220525
#	234945
#
# Disc length: 3349 seconds
#
# Revision: 4
# Processed by: cddbd v1.5.2PL0 Copyright (c) Steve Scherf et al.
# Submitted via: audiograbber 1.83.01
#
DISCID=f60d1313
DTITLE=Christmas -  A Country Christmas
DYEAR=1998
DGENRE=Christmas
TTITLE0=Dolly Parton - Medley: Winter Wonderland - Sleigh Ride
TTITLE1=Charley Pride - Christmas in My Home Town
TTITLE2=Chet Atkins - Snowbird
TTITLE3=Alabama - Christmas in Dixie
TTITLE4=Willie Nelson - Pretty Paper
TTITLE5=Jim Reeves - Jingle Bells
TTITLE6=Leon Everette - Everytime I Hear Blue Christmas
TTITLE7=Charley Pride - Let It Snow, Let It Snow
TTITLE8=Steve Wariner - Nöel Nöel
TTITLE9=Razzy Bailey - Peace on Earth
TTITLE10=Alabama - A Tennessee Christmas
TTITLE11=Jim Reeves - Senor Santa Claus
TTITLE12=Eddy Arnold - O Little Town of Betlehem
TTITLE13=Ronny Milsap - O Holy Nigth
TTITLE14=Eddy Arnold - I Heard the Bells on Christmas Day
TTITLE15=Jerry Reed - Christmas Times a Coming
TTITLE16=George Hamilton IV - Natividad (The Infant King)
TTITLE17=Jim Ed Brown - Helen Cornelius - Fall Softly Snow
TTITLE18=Dolly Parton - Hard Candy Christmas
EXTD=YEAR: 1998 ID3G: 2
EXTT0=
EXTT1=
EXTT2=
EXTT3=
EXTT4=
EXTT5=
EXTT6=
EXTT7=
EXTT8=
EXTT9=
EXTT10=
EXTT11=
EXTT12=
EXTT13=
EXTT14=
EXTT15=
EXTT16=
EXTT17=
EXTT18=
PLAYORDER=
